<svg xmlns="http://www.w3.org/2000/svg" width="563" height="88" viewBox="0 0 563 88" fill="none">
<g clip-path="url(#clip0)">
<path d="M0 43.0859V59.2767H15.7618L0 74.9295V85.9564H11.9293L26.7735 71.218V85.9564H43.0752V59.2767V43.0859H26.7735H0Z" fill="black"/>
<path d="M0 0V16.1907H26.7735V26.9487H43.0752V16.1907V5.2176V1.45232V0H0Z" fill="black"/>
<path d="M184.608 58.9537C184.608 48.7874 177.483 41.9561 166.849 41.9561H131.709V87.4084H145.258V75.8974H161.235L168.199 87.4084H184.176L175.81 73.961C181.424 71.1639 184.608 65.785 184.608 58.9537ZM145.258 53.6823H163.772C167.875 53.6823 171.06 54.0588 171.06 58.9537C171.06 63.7947 167.929 64.1713 163.772 64.1713H145.258V53.6823Z" fill="black"/>
<path d="M220.18 41.3104C201.341 41.3104 191.841 49.1637 191.841 64.6014C191.841 80.1466 201.395 87.9999 220.18 87.9999C238.964 87.9999 248.519 80.1466 248.519 64.6014C248.519 49.1637 238.964 41.3104 220.18 41.3104ZM220.18 76.2738C209.546 76.2738 205.39 72.9926 205.39 64.6014C205.39 57.6625 207.927 53.0366 220.18 53.0366C232.487 53.0366 234.97 57.6625 234.97 64.6014C234.97 72.885 230.652 76.2738 220.18 76.2738Z" fill="black"/>
<path d="M299.584 64.6016C299.584 70.6798 297.802 76.274 284.793 76.274C271.784 76.274 270.003 70.6798 270.003 64.6016V41.9561H256.4V64.6016C256.4 80.5772 265.415 88.0002 284.739 88.0002C304.064 88.0002 313.078 80.5772 313.078 64.6016V41.9561H299.584V64.6016Z" fill="black"/>
<path d="M366.246 72.2935L338.555 41.9561H321.714V87.4084H335.317V57.071L362.954 87.4084H379.795V41.9561H366.246V72.2935Z" fill="black"/>
<path d="M421.466 41.9561H388.917V87.4084H421.466C427.566 87.4084 433.072 85.4182 436.958 81.8143C441.33 77.7801 443.652 71.8632 443.652 64.6554C443.652 47.9268 431.722 41.9561 421.466 41.9561ZM430.103 64.7092C430.103 73.961 425.623 75.7361 417.31 75.7361H402.52V53.7361H417.31V52.4989V53.7361C425.623 53.6823 430.103 55.4573 430.103 64.7092Z" fill="black"/>
<path d="M463.572 76.1665V69.8731H498.119V59.4379H463.572V53.1982L498.119 53.1445V41.9024L450.023 41.9562V87.4085H498.119V76.1665H463.572Z" fill="black"/>
<path d="M540.815 41.9024H508.266V87.3547H540.815C551.071 87.3547 563 81.3841 563 64.6017C563 47.8731 551.071 41.9024 540.815 41.9024ZM549.452 64.6555C549.452 69.1738 548.372 72.0785 546.105 73.6921C544.162 75.0907 541.355 75.6824 536.659 75.6824H521.868V53.6824H536.659L536.713 52.4452V53.6824C544.971 53.6286 549.452 55.4036 549.452 64.6555Z" fill="black"/>
<path d="M122.047 62.5573H118.916V62.5035H91.6026V70.8409H107.31C105.367 74.66 101.103 76.2737 93.7618 76.2737C83.1279 76.2737 78.9716 72.9925 78.9716 64.6013C78.9716 57.6624 81.5086 53.0365 93.7618 53.0365C100.941 53.0365 104.773 54.5964 106.717 57.2859H121.237C118.538 46.6893 109.308 41.2565 93.7618 41.2565C74.9231 41.2565 65.4229 49.1098 65.4229 64.5475C65.4229 80.0927 74.9771 87.946 93.7618 87.946C112.546 87.946 122.101 80.0927 122.101 64.5475C122.101 63.902 122.101 63.2565 122.047 62.5573Z" fill="black"/>
</g>
<defs>
<clipPath id="clip0">
<rect width="563" height="88" fill="white"/>
</clipPath>
</defs>
</svg>
