<svg id="Layer_1" data-name="Layer 1" xmlns="http://www.w3.org/2000/svg" viewBox="0 0 360 68"><defs><style>.cls-1{fill:#231f20;}</style></defs><title>_</title><polygon class="cls-1" points="10.8 32.75 10.8 42.53 20.27 42.53 10.8 51.99 10.8 58.64 17.98 58.64 26.9 49.72 26.9 58.64 36.68 58.64 36.68 42.53 36.68 32.75 26.9 32.75 10.8 32.75"/><polygon class="cls-1" points="10.8 6.78 10.8 16.56 26.9 16.56 26.9 23.05 36.68 23.05 36.68 16.56 36.68 9.93 36.68 7.64 36.68 6.78 10.8 6.78"/><path class="cls-1" d="M121.76,41.63c0-6.14-4.29-10.26-10.68-10.26H90V58.79h8.15V51.86h9.59l4.19,6.93h9.6l-5-8.12A9.56,9.56,0,0,0,121.76,41.63ZM98.11,38.44h11.12c2.48,0,4.37.24,4.37,3.19s-1.89,3.15-4.37,3.15H98.11Z"/><path class="cls-1" d="M143.13,31c-11.32,0-17,4.73-17,14.05s5.73,14.12,17,14.12,17-4.75,17-14.12S154.44,31,143.13,31Zm0,21.09c-6.41,0-8.9-2-8.9-7,0-4.18,1.51-7,8.9-7S152,40.86,152,45C152,50,149.44,52.08,143.13,52.08Z"/><path class="cls-1" d="M190.85,45c0,3.66-1.08,7-8.89,7s-8.9-3.38-8.9-7V31.37h-8.15V45c0,9.63,5.42,14.12,17.05,14.12S199,54.67,199,45V31.37h-8.15Z"/><polygon class="cls-1" points="230.94 49.68 214.29 31.36 204.18 31.36 204.18 58.79 212.34 58.79 212.34 40.51 228.94 58.79 239.09 58.79 239.09 31.36 230.94 31.36 230.94 49.68"/><path class="cls-1" d="M264.12,31.38H244.56V58.81h19.57a13.55,13.55,0,0,0,9.31-3.38c2.63-2.44,4-6,4-10.34C277.47,35,270.28,31.38,264.12,31.38Zm5.2,13.71c0,5.58-2.71,6.63-7.71,6.64h-8.89V38.46h8.9v-.74h0v.74C266.61,38.46,269.32,39.51,269.32,45.09Z"/><polygon class="cls-1" points="289.45 52.01 289.45 48.23 310.2 48.22 310.2 41.92 289.44 41.93 289.44 38.15 310.19 38.14 310.19 31.36 281.29 31.37 281.3 58.8 310.2 58.78 310.2 52 289.45 52.01"/><path class="cls-1" d="M335.86,31.35H316.29V58.78h19.57c6.15,0,13.34-3.6,13.33-13.72S342,31.35,335.86,31.35Zm5.19,13.71c0,2.73-.64,4.46-2,5.44-1.17.84-2.87,1.19-5.68,1.19h-8.9V38.43h8.9l0-.74h0v.74C338.35,38.43,341.05,39.48,341.05,45.06Z"/><path class="cls-1" d="M84.15,43.82H82.29v0H65.86v5H75.3c-1.16,2.3-3.74,3.29-8.15,3.29-6.4,0-8.89-2-8.89-7,0-4.18,1.51-7,8.89-7,4.31,0,6.62,1,7.79,2.58h8.74C82.05,34.24,76.52,31,67.15,31c-11.31,0-17,4.73-17,14.05s5.73,14.12,17,14.12,17-4.75,17-14.12C84.2,44.62,84.18,44.22,84.15,43.82Z"/></svg>