<svg width="204" height="21" viewBox="0 0 204 21" xmlns="http://www.w3.org/2000/svg">
<path d="M48.8644 8.16153C48.8644 4.00801 45.9449 1.22095 41.5961 1.22095H27.25V19.7698H32.7965V15.0818H39.3231L42.1746 19.7698H48.7079L45.3051 14.2768C46.4312 13.7105 47.3672 12.8308 47.9991 11.745C48.6311 10.6592 48.9318 9.41416 48.8644 8.16153V8.16153ZM32.7693 6.00359H40.3371C42.0249 6.00359 43.3111 6.16595 43.3111 8.16153C43.3111 10.1571 42.0249 10.2924 40.3371 10.2924H32.7693V6.00359Z" fill="currentColor" />
<path d="M63.4083 0.970703C55.7044 0.970703 51.8389 4.17041 51.8389 10.4751C51.8389 16.7798 55.7385 20.0269 63.4083 20.0269C71.0782 20.0269 74.9778 16.8136 74.9778 10.4751C74.9778 4.13659 71.1054 0.970703 63.4083 0.970703ZM63.4083 15.2375C59.046 15.2375 57.3514 13.8845 57.3514 10.5022C57.3514 7.67453 58.379 5.76688 63.4083 5.76688C68.4376 5.76688 69.4448 7.6407 69.4448 10.4413C69.4448 13.8236 67.7026 15.2307 63.4083 15.2307V15.2375Z" fill="currentColor" />
<path d="M95.8841 10.4412C95.8841 12.9171 95.1491 15.1765 89.8339 15.1765C84.5188 15.1765 83.777 12.8901 83.777 10.4412V1.22095H78.2305V10.4412C78.2305 16.9557 81.9191 19.993 89.8339 19.993C97.7488 19.993 101.431 16.9827 101.431 10.4412V1.22095H95.8841V10.4412Z" fill="currentColor" />
<path d="M123.168 13.6071L111.836 1.21411H104.956V19.7697H110.509V7.40382L121.807 19.7697H128.714V1.21411H123.168V13.6071Z" fill="currentColor" />
<path d="M145.748 1.22754H132.437V19.7831H145.755C148.082 19.843 150.345 19.0263 152.091 17.4967C153.881 15.8461 154.813 13.4378 154.813 10.502C154.834 3.67636 149.94 1.22754 145.748 1.22754ZM149.287 10.502C149.287 14.2767 147.443 14.987 144.04 14.9937H137.99V6.01695H144.047V5.51636V6.01695C147.443 6.01695 149.287 6.72725 149.287 10.502Z" fill="currentColor" />
<path d="M162.987 15.1832V12.6262L177.108 12.6194V8.35764L162.98 8.36441V5.80735L177.102 5.80058V1.21411L157.434 1.22088L157.44 19.7765L177.108 19.7629V15.1765L162.987 15.1832Z" fill="currentColor" />
<path d="M194.571 1.20728H181.253V19.7629H194.571C198.757 19.7629 203.65 17.3276 203.643 10.4817C203.636 3.63581 198.75 1.20728 194.571 1.20728ZM198.103 10.4817C198.103 12.3285 197.668 13.4987 196.742 14.1617C195.946 14.7299 194.789 14.9667 192.877 14.9667H186.82V5.99669H192.877V5.4961V5.99669C196.266 5.99669 198.103 6.70698 198.103 10.4817Z" fill="currentColor" />
<path d="M23.2688 9.64306H22.0029H10.8214V13.0254H17.2459C16.4564 14.5813 14.7006 15.251 11.6993 15.251C7.34377 15.251 5.64918 13.8981 5.64918 10.5157C5.64918 7.68806 6.67683 5.78041 11.6993 5.78041C14.6325 5.78041 16.2046 6.45688 17.0009 7.5257H22.9489C21.8396 3.16247 18.0761 0.970703 11.6993 0.970703C4.00224 0.970703 0.129883 4.17041 0.129883 10.4751C0.129883 16.7798 4.02946 20.0269 11.6993 20.0269C19.3692 20.0269 23.2688 16.8136 23.2688 10.4751C23.3028 10.1842 23.2892 9.91364 23.2688 9.64306Z" fill="currentColor" />
</svg>
