<svg width="794" height="313" viewBox="0 0 794 313" fill="none" xmlns="http://www.w3.org/2000/svg">

<path d="M25.8 137.96C18.36 137.96 12.8 135.36 9.12 130.16C5.52 124.88 3.72 116.92 3.72 106.28V61.88C3.72 52.36 5.84 45.16 10.08 40.28C14.32 35.4 20.64 32.96 29.04 32.96C35.84 32.96 41.12 34.32 44.88 37.04C48.64 39.76 51.24 43.72 52.68 48.92C54.12 54.12 54.84 60.8 54.84 68.96H34.68V59.72C34.68 57.24 34.32 55.32 33.6 53.96C32.96 52.6 31.76 51.92 30 51.92C26.08 51.92 24.12 54.48 24.12 59.6V109.52C24.12 112.64 24.52 115 25.32 116.6C26.12 118.2 27.52 119 29.52 119C31.52 119 32.92 118.2 33.72 116.6C34.52 115 34.92 112.64 34.92 109.52V94.76H29.4V77H54.6V137H46.32L42.84 128.36C39.16 134.76 33.48 137.96 25.8 137.96ZM65.2022 33.92H96.8822C101.922 33.92 105.802 35.08 108.522 37.4C111.322 39.64 113.202 42.84 114.162 47C115.122 51.08 115.602 56.32 115.602 62.72C115.602 68.56 114.842 73.12 113.322 76.4C111.802 79.68 109.162 81.96 105.402 83.24C108.522 83.88 110.762 85.44 112.122 87.92C113.562 90.4 114.282 93.76 114.282 98L114.042 137H93.8822V96.68C93.8822 93.8 93.3222 91.96 92.2022 91.16C91.0822 90.36 89.0422 89.96 86.0822 89.96V137H65.2022V33.92ZM91.1222 72.08C94.0022 72.08 95.4422 68.96 95.4422 62.72C95.4422 60 95.3222 57.96 95.0822 56.6C94.8422 55.24 94.4022 54.32 93.7622 53.84C93.1222 53.28 92.2022 53 91.0022 53H86.2022V72.08H91.1222ZM149.39 137.96C141.07 137.96 134.75 135.44 130.43 130.4C126.11 125.28 123.95 118.12 123.95 108.92V59.84C123.95 50.96 126.11 44.28 130.43 39.8C134.75 35.24 141.07 32.96 149.39 32.96C157.71 32.96 164.03 35.24 168.35 39.8C172.67 44.28 174.83 50.96 174.83 59.84V108.92C174.83 118.2 172.67 125.36 168.35 130.4C164.03 135.44 157.71 137.96 149.39 137.96ZM149.39 119C151.23 119 152.47 118.2 153.11 116.6C153.75 115 154.07 112.76 154.07 109.88V59.48C154.07 57.24 153.75 55.44 153.11 54.08C152.55 52.64 151.35 51.92 149.51 51.92C146.07 51.92 144.35 54.52 144.35 59.72V110C144.35 112.96 144.71 115.2 145.43 116.72C146.15 118.24 147.47 119 149.39 119ZM209.429 137.96C200.949 137.96 194.629 135.56 190.469 130.76C186.389 125.96 184.349 118.84 184.349 109.4V33.92H204.389V108.56C204.389 111.84 204.709 114.4 205.349 116.24C205.989 118.08 207.349 119 209.429 119C211.509 119 212.869 118.12 213.509 116.36C214.149 114.52 214.469 111.92 214.469 108.56V33.92H234.509V109.4C234.509 118.84 232.429 125.96 228.269 130.76C224.189 135.56 217.909 137.96 209.429 137.96ZM244.785 137V33.92H266.025L275.505 83.24V33.92H295.425V137H275.265L264.945 85.4V137H244.785ZM306.951 33.92H335.391C342.751 33.92 348.271 35.96 351.951 40.04C355.631 44.12 357.511 50.16 357.591 58.16L357.831 106.4C357.911 116.56 356.151 124.2 352.551 129.32C348.951 134.44 342.991 137 334.671 137H306.951V33.92ZM331.311 118.76C335.071 118.76 336.951 116.92 336.951 113.24V60.08C336.951 57.76 336.751 56.04 336.351 54.92C336.031 53.72 335.391 52.92 334.431 52.52C333.471 52.12 331.991 51.92 329.991 51.92H327.711V118.76H331.311ZM368.53 137V33.92H409.81V53.84H389.53V73.88H408.97V93.32H389.53V116.96H411.13V137H368.53ZM420.383 33.92H448.823C456.183 33.92 461.703 35.96 465.383 40.04C469.063 44.12 470.943 50.16 471.023 58.16L471.263 106.4C471.343 116.56 469.583 124.2 465.983 129.32C462.383 134.44 456.423 137 448.103 137H420.383V33.92ZM444.743 118.76C448.503 118.76 450.383 116.92 450.383 113.24V60.08C450.383 57.76 450.183 56.04 449.783 54.92C449.463 53.72 448.823 52.92 447.863 52.52C446.903 52.12 445.423 51.92 443.423 51.92H441.143V118.76H444.743Z" fill="white"/>
<path d="M3.6 275V171.92H23.52V275H3.6ZM58.6275 275.96C49.2675 275.96 42.5075 273.64 38.3475 269C34.1875 264.36 32.1075 256.88 32.1075 246.56V236.48H52.3875V249.32C52.3875 254.44 54.0275 257 57.3075 257C59.1475 257 60.4275 256.48 61.1475 255.44C61.8675 254.32 62.2275 252.48 62.2275 249.92C62.2275 246.56 61.8275 243.8 61.0275 241.64C60.2275 239.4 59.1875 237.56 57.9075 236.12C56.7075 234.6 54.5075 232.28 51.3075 229.16L42.4275 220.28C35.5475 213.56 32.1075 206.12 32.1075 197.96C32.1075 189.16 34.1075 182.48 38.1075 177.92C42.1875 173.28 48.1075 170.96 55.8675 170.96C65.1475 170.96 71.8275 173.44 75.9075 178.4C79.9875 183.28 82.0275 190.96 82.0275 201.44H61.0275L60.9075 194.36C60.9075 193 60.5075 191.92 59.7075 191.12C58.9875 190.32 57.9475 189.92 56.5875 189.92C54.9875 189.92 53.7875 190.36 52.9875 191.24C52.1875 192.12 51.7875 193.32 51.7875 194.84C51.7875 198.2 53.7075 201.68 57.5475 205.28L69.5475 216.8C72.3475 219.52 74.6675 222.12 76.5075 224.6C78.3475 227 79.8275 229.88 80.9475 233.24C82.0675 236.52 82.6275 240.44 82.6275 245C82.6275 255.16 80.7475 262.88 76.9875 268.16C73.3075 273.36 67.1875 275.96 58.6275 275.96Z" fill="white"/>
<path d="M146.56 274.96C139.04 274.96 133 272.6 128.44 267.88C123.96 263.16 121.72 256.68 121.72 248.44V200.92C121.72 190.68 123.76 182.96 127.84 177.76C131.92 172.56 138.32 169.96 147.04 169.96C154.64 169.96 160.76 172.04 165.4 176.2C170.04 180.36 172.36 186.36 172.36 194.2V211.96H151.84V196.72C151.84 193.76 151.48 191.72 150.76 190.6C150.04 189.48 148.8 188.92 147.04 188.92C145.2 188.92 143.92 189.56 143.2 190.84C142.56 192.12 142.24 194 142.24 196.48V248.2C142.24 250.92 142.64 252.92 143.44 254.2C144.24 255.4 145.44 256 147.04 256C150.24 256 151.84 253.4 151.84 248.2V229.6H172.6V249.04C172.6 266.32 163.92 274.96 146.56 274.96ZM181.796 170.92H213.476C218.516 170.92 222.396 172.08 225.116 174.4C227.916 176.64 229.796 179.84 230.756 184C231.716 188.08 232.196 193.32 232.196 199.72C232.196 205.56 231.436 210.12 229.916 213.4C228.396 216.68 225.756 218.96 221.996 220.24C225.116 220.88 227.356 222.44 228.716 224.92C230.156 227.4 230.876 230.76 230.876 235L230.636 274H210.476V233.68C210.476 230.8 209.916 228.96 208.796 228.16C207.676 227.36 205.636 226.96 202.676 226.96V274H181.796V170.92ZM207.716 209.08C210.596 209.08 212.036 205.96 212.036 199.72C212.036 197 211.916 194.96 211.676 193.6C211.436 192.24 210.996 191.32 210.356 190.84C209.716 190.28 208.796 190 207.596 190H202.796V209.08H207.716ZM241.383 274V170.92H282.663V190.84H262.383V210.88H281.823V230.32H262.383V253.96H283.983V274H241.383ZM290.477 274L300.437 170.92H335.357L345.197 274H325.637L324.197 257.32H311.717L310.517 274H290.477ZM313.277 240.88H322.637L318.077 188.44H317.117L313.277 240.88ZM362.759 274V190.72H350.519V170.92H395.639V190.72H383.399V274H362.759ZM402.897 274V170.92H422.817V274H402.897ZM442.924 274L430.204 170.8H449.884L457.444 241L464.164 170.8H483.844L471.124 274H442.924ZM491.134 274V170.92H511.054V274H491.134ZM530.562 274V190.72H518.322V170.92H563.442V190.72H551.202V274H530.562ZM584.14 274V240.04L567.7 170.92H588.1L593.86 205.84L599.62 170.92H620.02L603.58 240.04V274H584.14Z" fill="white"/>
</svg>
